<?xml version="1.0" standalone="no"?>
<!DOCTYPE svg PUBLIC "-//W3C//DTD SVG 20010904//EN"
 "http://www.w3.org/TR/2001/REC-SVG-20010904/DTD/svg10.dtd">
<svg version="1.0" xmlns="http://www.w3.org/2000/svg"
 width="700.000000pt" height="700.000000pt" viewBox="0 0 700.000000 700.000000"
 preserveAspectRatio="xMidYMid meet">
<metadata>
Created by potrace 1.11, written by Peter Selinger 2001-2013
</metadata>
<g transform="translate(0.000000,700.000000) scale(0.100000,-0.100000)"
fill="#000000" stroke="none">
<path d="M1569 6333 c-120 -24 -229 -133 -249 -248 -3 -16 -5 -1189 -5 -2605
l0 -2575 22 -47 c43 -93 139 -172 233 -193 60 -14 3794 -12 3861 2 98 20 179
85 227 183 l27 55 2 2577 c2 2793 5 2624 -51 2708 -49 74 -124 127 -206 146
-59 13 -3794 11 -3861 -3z m3848 -229 c42 -31 53 -61 53 -143 0 -66 -2 -72
-17 -65 -22 10 -3831 14 -3884 4 l-39 -7 0 69 c0 87 19 132 65 150 27 11 371
13 1913 13 l1881 0 28 -21z m-9 -431 c66 -32 62 100 62 -1892 l0 -1810 -422
-3 -423 -3 -55 -26 c-96 -46 -163 -126 -185 -221 -8 -37 -11 -171 -10 -438 0
-212 0 -390 -2 -395 -2 -7 -467 -10 -1382 -10 l-1380 0 -28 21 c-15 12 -34 32
-40 45 -10 19 -13 522 -13 2342 0 2563 -5 2363 63 2392 27 11 353 14 1906 14
1722 1 1877 -1 1909 -16z m60 -4328 l-3 -405 -32 -32 -33 -32 -387 -1 c-214
-1 -395 1 -404 3 -14 3 -16 46 -15 400 1 360 3 399 18 422 35 49 37 49 461 50
l398 0 -3 -405z"/>
<path d="M2885 4790 l-370 -370 -180 180 -180 180 -78 -78 -78 -78 203 -200
c179 -177 208 -202 248 -212 59 -14 118 -9 166 16 22 12 204 185 419 401 l380
381 -75 75 c-41 41 -77 75 -80 75 -3 0 -172 -166 -375 -370z"/>
<path d="M3718 5008 c-2 -13 -2 -62 0 -110 l3 -87 655 0 654 0 0 110 0 109
-654 0 -655 0 -3 -22z"/>
<path d="M3722 4593 c-4 -2 -6 -24 -5 -50 1 -27 2 -75 2 -108 l1 -60 653 0
652 0 0 109 0 110 -648 0 c-356 1 -650 0 -655 -1z"/>
<path d="M2885 3040 l-370 -370 -180 180 -180 180 -78 -78 -77 -77 193 -192
c215 -215 244 -234 339 -228 44 3 67 11 100 33 24 17 209 197 413 401 l370
371 -75 75 c-41 41 -77 75 -80 75 -3 0 -172 -166 -375 -370z"/>
<path d="M3773 3282 c-60 -3 -54 10 -54 -127 0 -36 0 -71 0 -79 1 -11 112 -13
656 -13 l655 0 0 108 0 109 -62 0 c-530 3 -1155 4 -1195 2z"/>
<path d="M3718 2790 c-2 -30 -1 -80 2 -110 l5 -55 653 0 653 0 -3 110 -3 110
-652 0 -651 0 -4 -55z"/>
<path d="M4864 1511 c-45 -28 -54 -66 -51 -218 l2 -133 33 -32 32 -33 139 -1
c222 -2 234 11 229 238 l-3 140 -33 29 -32 29 -143 0 c-122 0 -146 -3 -173
-19z"/>
</g>
</svg>
